<?xml version="1.0" encoding="utf-8"?>
<!-- Generator: Adobe Illustrator 16.0.0, SVG Export Plug-In . SVG Version: 6.00 Build 0)  -->
<!DOCTYPE svg PUBLIC "-//W3C//DTD SVG 1.1//EN" "http://www.w3.org/Graphics/SVG/1.1/DTD/svg11.dtd">
<svg version="1.1" id="Layer_1" xmlns="http://www.w3.org/2000/svg" xmlns:xlink="http://www.w3.org/1999/xlink" x="0px" y="0px"
	 width="240.083px" height="217px" viewBox="0 0 240.083 217" enable-background="new 0 0 240.083 217" xml:space="preserve">
<g>
	<path fill-rule="evenodd" clip-rule="evenodd" d="M9.991,213.334c-7.465-4.691-7.882-5.807-5.981-15.691
		c6.564-34.131,25.265-59.779,54.342-78.354c3.988-2.549,6.673-2.648,10.345,0.518c11.011,9.498,23.432,16.256,38.18,18.006
		c22.434,2.66,42.595-2.615,59.821-17.469c3.275-2.824,5.463-2.986,9.045-0.676c29.385,18.943,48.542,44.904,55.393,79.512
		c1.634,8.25,1.297,9.197-6.144,14.154C153.324,213.334,81.658,213.334,9.991,213.334z"/>
	<path fill-rule="evenodd" clip-rule="evenodd" d="M120.991,2.333c3.386,0.726,6.778,1.418,10.155,2.182
		c27.404,6.194,46.276,31.089,45.578,60.104c-0.646,26.828-21.77,50.949-48.676,55.583c-38.631,6.654-72.236-23.535-69.758-62.669
		c1.752-27.672,24.056-50.899,51.912-54.118c1.287-0.148,2.526-0.712,3.788-1.082C116.324,2.333,118.658,2.333,120.991,2.333z"/>
</g>
</svg>
